{
    "asset" : {
        "generator" : "Khronos glTF Blender I/O v1.6.16",
        "version" : "2.0"
    },
    "scene" : 0,
    "scenes" : [
        {
            "name" : "Scene",
            "nodes" : [
                12,
                13,
                14,
                15
            ]
        }
    ],
    "nodes" : [
        {
            "mesh" : 0,
            "name" : "cliff2_cliff1_0",
            "rotation" : [
                0,
                -0.39746901392936707,
                0,
                0.9176155924797058
            ],
            "translation" : [
                -2075.135009765625,
                0,
                -1336.7430419921875
            ]
        },
        {
            "mesh" : 1,
            "name" : "cliff2_cliff1_0.001",
            "rotation" : [
                0,
                -0.841999351978302,
                0,
                0.5394785404205322
            ],
            "translation" : [
                -2342.48388671875,
                0,
                -3246.375732421875
            ]
        },
        {
            "mesh" : 2,
            "name" : "cliff2_cliff1_0.002",
            "rotation" : [
                0,
                0.8806451559066772,
                0,
                0.47377634048461914
            ],
            "translation" : [
                1740.8404541015625,
                0,
                -4528.326171875
            ]
        },
        {
            "mesh" : 3,
            "name" : "cliff2_cliff1_0.003",
            "rotation" : [
                0,
                0.46620890498161316,
                0,
                0.8846747279167175
            ],
            "translation" : [
                1681.96435546875,
                0,
                -2600.9697265625
            ]
        },
        {
            "children" : [
                0,
                1,
                2,
                3
            ],
            "name" : "cliff2",
            "translation" : [
                0,
                0,
                1084.8150634765625
            ]
        },
        {
            "mesh" : 4,
            "name" : "cliff3_cliff2_0",
            "translation" : [
                546.5259399414062,
                0,
                0
            ]
        },
        {
            "mesh" : 5,
            "name" : "cliff3_cliff2_0.001",
            "translation" : [
                -2312.778076171875,
                -0.0006861895672045648,
                -4211.8017578125
            ]
        },
        {
            "mesh" : 6,
            "name" : "cliff3_cliff2_0.002",
            "rotation" : [
                0,
                -0.9148036241531372,
                0,
                0.4038989543914795
            ],
            "translation" : [
                -569.8547973632812,
                0.0007103311363607645,
                407.80694580078125
            ]
        },
        {
            "children" : [
                5,
                6,
                7
            ],
            "name" : "cliff3"
        },
        {
            "children" : [
                4,
                8
            ],
            "name" : "RootNode"
        },
        {
            "children" : [
                9
            ],
            "name" : "672308ab37df4983b8c49390a55f5219.fbx",
            "rotation" : [
                0.7071068286895752,
                0,
                0,
                0.7071068286895752
            ]
        },
        {
            "children" : [
                10
            ],
            "name" : "RootNode (model correction matrix)"
        },
        {
            "children" : [
                11
            ],
            "name" : "RootNode (gltf orientation matrix)",
            "rotation" : [
                -0.7071068286895752,
                0,
                0,
                0.7071068286895752
            ],
            "scale" : [
                0.01863936334848404,
                0.01863936334848404,
                0.01863936334848404
            ]
        },
        {
            "name" : "Light",
            "rotation" : [
                0.16907575726509094,
                0.7558803558349609,
                -0.27217137813568115,
                0.570947527885437
            ],
            "translation" : [
                4.076245307922363,
                5.903861999511719,
                -1.0054539442062378
            ]
        },
        {
            "name" : "Camera",
            "rotation" : [
                0.483536034822464,
                0.33687159419059753,
                -0.20870360732078552,
                0.7804827094078064
            ],
            "translation" : [
                7.358891487121582,
                4.958309173583984,
                6.925790786743164
            ]
        },
        {
            "mesh" : 7,
            "name" : "Cube",
            "scale" : [
                6.125763893127441,
                4.613835334777832,
                4.954105377197266
            ],
            "translation" : [
                -8.741926193237305,
                -0.7147471308708191,
                -3.952455520629883
            ]
        }
    ],
    "materials" : [
        {
            "name" : "cliff1",
            "normalTexture" : {
                "index" : 0
            },
            "pbrMetallicRoughness" : {
                "baseColorTexture" : {
                    "index" : 1
                },
                "metallicFactor" : 0,
                "metallicRoughnessTexture" : {
                    "index" : 2
                }
            }
        },
        {
            "name" : "cliff2",
            "normalTexture" : {
                "index" : 3
            },
            "pbrMetallicRoughness" : {
                "baseColorTexture" : {
                    "index" : 4
                },
                "metallicFactor" : 0,
                "metallicRoughnessTexture" : {
                    "index" : 5
                }
            }
        },
        {
            "doubleSided" : true,
            "name" : "Material.001",
            "pbrMetallicRoughness" : {
                "baseColorFactor" : [
                    0.8000000715255737,
                    0.5483837127685547,
                    0.2536907196044922,
                    1
                ],
                "metallicFactor" : 0,
                "roughnessFactor" : 0.75
            }
        }
    ],
    "meshes" : [
        {
            "name" : "cliff2_cliff1_0",
            "primitives" : [
                {
                    "attributes" : {
                        "POSITION" : 0,
                        "NORMAL" : 1,
                        "TEXCOORD_0" : 2,
                        "TEXCOORD_1" : 3
                    },
                    "indices" : 4,
                    "material" : 0
                }
            ]
        },
        {
            "name" : "cliff2_cliff1_0.001",
            "primitives" : [
                {
                    "attributes" : {
                        "POSITION" : 5,
                        "NORMAL" : 6,
                        "TEXCOORD_0" : 7,
                        "TEXCOORD_1" : 8
                    },
                    "indices" : 4,
                    "material" : 0
                }
            ]
        },
        {
            "name" : "cliff2_cliff1_0.002",
            "primitives" : [
                {
                    "attributes" : {
                        "POSITION" : 9,
                        "NORMAL" : 10,
                        "TEXCOORD_0" : 11,
                        "TEXCOORD_1" : 12
                    },
                    "indices" : 4,
                    "material" : 0
                }
            ]
        },
        {
            "name" : "cliff2_cliff1_0.003",
            "primitives" : [
                {
                    "attributes" : {
                        "POSITION" : 13,
                        "NORMAL" : 14,
                        "TEXCOORD_0" : 15,
                        "TEXCOORD_1" : 16
                    },
                    "indices" : 4,
                    "material" : 0
                }
            ]
        },
        {
            "name" : "cliff3_cliff2_0",
            "primitives" : [
                {
                    "attributes" : {
                        "POSITION" : 17,
                        "NORMAL" : 18,
                        "TEXCOORD_0" : 19,
                        "TEXCOORD_1" : 20
                    },
                    "indices" : 21,
                    "material" : 1
                }
            ]
        },
        {
            "name" : "cliff3_cliff2_0.001",
            "primitives" : [
                {
                    "attributes" : {
                        "POSITION" : 22,
                        "NORMAL" : 23,
                        "TEXCOORD_0" : 24,
                        "TEXCOORD_1" : 25
                    },
                    "indices" : 21,
                    "material" : 1
                }
            ]
        },
        {
            "name" : "cliff3_cliff2_0.002",
            "primitives" : [
                {
                    "attributes" : {
                        "POSITION" : 26,
                        "NORMAL" : 27,
                        "TEXCOORD_0" : 28,
                        "TEXCOORD_1" : 29
                    },
                    "indices" : 21,
                    "material" : 1
                }
            ]
        },
        {
            "name" : "Cube.001",
            "primitives" : [
                {
                    "attributes" : {
                        "POSITION" : 30,
                        "NORMAL" : 31,
                        "TEXCOORD_0" : 32,
                        "TEXCOORD_1" : 33
                    },
                    "indices" : 34,
                    "material" : 2
                }
            ]
        }
    ],
    "textures" : [
        {
            "sampler" : 0,
            "source" : 0
        },
        {
            "sampler" : 0,
            "source" : 1
        },
        {
            "sampler" : 0,
            "source" : 2
        },
        {
            "sampler" : 0,
            "source" : 3
        },
        {
            "sampler" : 0,
            "source" : 4
        },
        {
            "sampler" : 0,
            "source" : 5
        }
    ],
    "images" : [
        {
            "mimeType" : "image/jpeg",
            "name" : "cliff1_normal",
            "uri" : "textures/cliff1_normal.jpg"
        },
        {
            "mimeType" : "image/jpeg",
            "name" : "cliff1_baseColor",
            "uri" : "textures/cliff1_baseColor.jpg"
        },
        {
            "mimeType" : "image/jpeg",
            "name" : "cliff1_metallicRoughness",
            "uri" : "textures/cliff1_metallicRoughness.jpg"
        },
        {
            "mimeType" : "image/jpeg",
            "name" : "cliff2_normal",
            "uri" : "textures/cliff2_normal.jpg"
        },
        {
            "mimeType" : "image/jpeg",
            "name" : "cliff2_baseColor",
            "uri" : "textures/cliff2_baseColor.jpg"
        },
        {
            "mimeType" : "image/jpeg",
            "name" : "cliff2_metallicRoughness",
            "uri" : "textures/cliff2_metallicRoughness.jpg"
        }
    ],
    "accessors" : [
        {
            "bufferView" : 0,
            "componentType" : 5126,
            "count" : 729,
            "max" : [
                1196.5694580078125,
                1109.1278076171875,
                672.3541870117188
            ],
            "min" : [
                -1200.1798095703125,
                -29.652145385742188,
                -644.428955078125
            ],
            "type" : "VEC3"
        },
        {
            "bufferView" : 1,
            "componentType" : 5126,
            "count" : 729,
            "type" : "VEC3"
        },
        {
            "bufferView" : 2,
            "componentType" : 5126,
            "count" : 729,
            "type" : "VEC2"
        },
        {
            "bufferView" : 3,
            "componentType" : 5126,
            "count" : 729,
            "type" : "VEC2"
        },
        {
            "bufferView" : 4,
            "componentType" : 5123,
            "count" : 3294,
            "type" : "SCALAR"
        },
        {
            "bufferView" : 5,
            "componentType" : 5126,
            "count" : 729,
            "max" : [
                1196.5694580078125,
                1109.1278076171875,
                672.3541870117188
            ],
            "min" : [
                -1200.1798095703125,
                -29.652145385742188,
                -644.428955078125
            ],
            "type" : "VEC3"
        },
        {
            "bufferView" : 6,
            "componentType" : 5126,
            "count" : 729,
            "type" : "VEC3"
        },
        {
            "bufferView" : 7,
            "componentType" : 5126,
            "count" : 729,
            "type" : "VEC2"
        },
        {
            "bufferView" : 8,
            "componentType" : 5126,
            "count" : 729,
            "type" : "VEC2"
        },
        {
            "bufferView" : 9,
            "componentType" : 5126,
            "count" : 729,
            "max" : [
                1196.5694580078125,
                1109.1278076171875,
                672.3541870117188
            ],
            "min" : [
                -1200.1798095703125,
                -29.652145385742188,
                -644.428955078125
            ],
            "type" : "VEC3"
        },
        {
            "bufferView" : 10,
            "componentType" : 5126,
            "count" : 729,
            "type" : "VEC3"
        },
        {
            "bufferView" : 11,
            "componentType" : 5126,
            "count" : 729,
            "type" : "VEC2"
        },
        {
            "bufferView" : 12,
            "componentType" : 5126,
            "count" : 729,
            "type" : "VEC2"
        },
        {
            "bufferView" : 13,
            "componentType" : 5126,
            "count" : 729,
            "max" : [
                1196.5694580078125,
                1109.1278076171875,
                672.3541870117188
            ],
            "min" : [
                -1200.1798095703125,
                -29.652145385742188,
                -644.428955078125
            ],
            "type" : "VEC3"
        },
        {
            "bufferView" : 14,
            "componentType" : 5126,
            "count" : 729,
            "type" : "VEC3"
        },
        {
            "bufferView" : 15,
            "componentType" : 5126,
            "count" : 729,
            "type" : "VEC2"
        },
        {
            "bufferView" : 16,
            "componentType" : 5126,
            "count" : 729,
            "type" : "VEC2"
        },
        {
            "bufferView" : 17,
            "componentType" : 5126,
            "count" : 840,
            "max" : [
                695.2216796875,
                1555.0494384765625,
                617.69775390625
            ],
            "min" : [
                -717.26708984375,
                -8.45384693145752,
                -454.28326416015625
            ],
            "type" : "VEC3"
        },
        {
            "bufferView" : 18,
            "componentType" : 5126,
            "count" : 840,
            "type" : "VEC3"
        },
        {
            "bufferView" : 19,
            "componentType" : 5126,
            "count" : 840,
            "type" : "VEC2"
        },
        {
            "bufferView" : 20,
            "componentType" : 5126,
            "count" : 840,
            "type" : "VEC2"
        },
        {
            "bufferView" : 21,
            "componentType" : 5123,
            "count" : 4014,
            "type" : "SCALAR"
        },
        {
            "bufferView" : 22,
            "componentType" : 5126,
            "count" : 840,
            "max" : [
                695.2216796875,
                1555.0494384765625,
                617.69775390625
            ],
            "min" : [
                -717.26708984375,
                -8.45384693145752,
                -454.28326416015625
            ],
            "type" : "VEC3"
        },
        {
            "bufferView" : 23,
            "componentType" : 5126,
            "count" : 840,
            "type" : "VEC3"
        },
        {
            "bufferView" : 24,
            "componentType" : 5126,
            "count" : 840,
            "type" : "VEC2"
        },
        {
            "bufferView" : 25,
            "componentType" : 5126,
            "count" : 840,
            "type" : "VEC2"
        },
        {
            "bufferView" : 26,
            "componentType" : 5126,
            "count" : 840,
            "max" : [
                695.2216796875,
                1555.0494384765625,
                617.69775390625
            ],
            "min" : [
                -717.26708984375,
                -8.45384693145752,
                -454.28326416015625
            ],
            "type" : "VEC3"
        },
        {
            "bufferView" : 27,
            "componentType" : 5126,
            "count" : 840,
            "type" : "VEC3"
        },
        {
            "bufferView" : 28,
            "componentType" : 5126,
            "count" : 840,
            "type" : "VEC2"
        },
        {
            "bufferView" : 29,
            "componentType" : 5126,
            "count" : 840,
            "type" : "VEC2"
        },
        {
            "bufferView" : 30,
            "componentType" : 5126,
            "count" : 484,
            "max" : [
                7.260200500488281,
                1.0843795537948608,
                3.221132755279541
            ],
            "min" : [
                -7.260200500488281,
                0,
                -14.942985534667969
            ],
            "type" : "VEC3"
        },
        {
            "bufferView" : 31,
            "componentType" : 5126,
            "count" : 484,
            "type" : "VEC3"
        },
        {
            "bufferView" : 32,
            "componentType" : 5126,
            "count" : 484,
            "type" : "VEC2"
        },
        {
            "bufferView" : 33,
            "componentType" : 5126,
            "count" : 484,
            "type" : "VEC2"
        },
        {
            "bufferView" : 34,
            "componentType" : 5123,
            "count" : 1968,
            "type" : "SCALAR"
        }
    ],
    "bufferViews" : [
        {
            "buffer" : 0,
            "byteLength" : 8748,
            "byteOffset" : 0
        },
        {
            "buffer" : 0,
            "byteLength" : 8748,
            "byteOffset" : 8748
        },
        {
            "buffer" : 0,
            "byteLength" : 5832,
            "byteOffset" : 17496
        },
        {
            "buffer" : 0,
            "byteLength" : 5832,
            "byteOffset" : 23328
        },
        {
            "buffer" : 0,
            "byteLength" : 6588,
            "byteOffset" : 29160
        },
        {
            "buffer" : 0,
            "byteLength" : 8748,
            "byteOffset" : 35748
        },
        {
            "buffer" : 0,
            "byteLength" : 8748,
            "byteOffset" : 44496
        },
        {
            "buffer" : 0,
            "byteLength" : 5832,
            "byteOffset" : 53244
        },
        {
            "buffer" : 0,
            "byteLength" : 5832,
            "byteOffset" : 59076
        },
        {
            "buffer" : 0,
            "byteLength" : 8748,
            "byteOffset" : 64908
        },
        {
            "buffer" : 0,
            "byteLength" : 8748,
            "byteOffset" : 73656
        },
        {
            "buffer" : 0,
            "byteLength" : 5832,
            "byteOffset" : 82404
        },
        {
            "buffer" : 0,
            "byteLength" : 5832,
            "byteOffset" : 88236
        },
        {
            "buffer" : 0,
            "byteLength" : 8748,
            "byteOffset" : 94068
        },
        {
            "buffer" : 0,
            "byteLength" : 8748,
            "byteOffset" : 102816
        },
        {
            "buffer" : 0,
            "byteLength" : 5832,
            "byteOffset" : 111564
        },
        {
            "buffer" : 0,
            "byteLength" : 5832,
            "byteOffset" : 117396
        },
        {
            "buffer" : 0,
            "byteLength" : 10080,
            "byteOffset" : 123228
        },
        {
            "buffer" : 0,
            "byteLength" : 10080,
            "byteOffset" : 133308
        },
        {
            "buffer" : 0,
            "byteLength" : 6720,
            "byteOffset" : 143388
        },
        {
            "buffer" : 0,
            "byteLength" : 6720,
            "byteOffset" : 150108
        },
        {
            "buffer" : 0,
            "byteLength" : 8028,
            "byteOffset" : 156828
        },
        {
            "buffer" : 0,
            "byteLength" : 10080,
            "byteOffset" : 164856
        },
        {
            "buffer" : 0,
            "byteLength" : 10080,
            "byteOffset" : 174936
        },
        {
            "buffer" : 0,
            "byteLength" : 6720,
            "byteOffset" : 185016
        },
        {
            "buffer" : 0,
            "byteLength" : 6720,
            "byteOffset" : 191736
        },
        {
            "buffer" : 0,
            "byteLength" : 10080,
            "byteOffset" : 198456
        },
        {
            "buffer" : 0,
            "byteLength" : 10080,
            "byteOffset" : 208536
        },
        {
            "buffer" : 0,
            "byteLength" : 6720,
            "byteOffset" : 218616
        },
        {
            "buffer" : 0,
            "byteLength" : 6720,
            "byteOffset" : 225336
        },
        {
            "buffer" : 0,
            "byteLength" : 5808,
            "byteOffset" : 232056
        },
        {
            "buffer" : 0,
            "byteLength" : 5808,
            "byteOffset" : 237864
        },
        {
            "buffer" : 0,
            "byteLength" : 3872,
            "byteOffset" : 243672
        },
        {
            "buffer" : 0,
            "byteLength" : 3872,
            "byteOffset" : 247544
        },
        {
            "buffer" : 0,
            "byteLength" : 3936,
            "byteOffset" : 251416
        }
    ],
    "samplers" : [
        {
            "magFilter" : 9729,
            "minFilter" : 9987
        }
    ],
    "buffers" : [
        {
            "byteLength" : 255352,
            "uri" : "scene.bin"
        }
    ]
}
