<?xml version="1.0" encoding="UTF-8"?>
<svg fill="#ffffff" width="752pt" height="752pt" version="1.1" viewBox="0 0 752 752" xmlns="http://www.w3.org/2000/svg">
 <path d="m181.22 373.11 61.281 25.43c-5.3398 14.07-9.7812 28.465-13.309 43.098-1.082 4.418 0.20703 9.082 3.4102 12.312l65.402 65.496c3.2305 3.2031 7.8945 4.4922 12.312 3.4102 14.633-3.543 29.023-8.0039 43.094-13.355l25.43 61.281h0.003906c1.2617 3.0586 3.9688 5.2812 7.2109 5.9297 3.2461 0.64844 6.5977-0.37109 8.9375-2.7109l34.004-34.004v0.003906c13.262-13.297 20.27-31.59 19.273-50.344l-1.6562-32.203c71.133-54.035 137.01-145.58 156.71-296.22 0.51953-3.4648-0.63281-6.9648-3.1094-9.4414-2.4766-2.4766-5.9805-3.6289-9.4414-3.1094-150.64 19.605-242.19 85.246-296.46 156.52l-31.965-1.4688c-18.73-0.99609-37.004 5.9922-50.297 19.227l-34.051 34.098c-2.2969 2.3398-3.2852 5.6641-2.6406 8.8789s2.8398 5.9023 5.8633 7.1758zm251.61-112.19c7.7148-7.6641 18.152-11.957 29.027-11.934 10.875 0.023438 21.297 4.3594 28.977 12.055 7.6836 7.6992 11.996 18.129 11.996 29.004s-4.3125 21.305-11.996 29.004c-7.6797 7.6953-18.102 12.031-28.977 12.055-10.875 0.023437-21.312-4.2695-29.027-11.934-7.7578-7.707-12.117-18.191-12.117-29.125s4.3594-21.418 12.117-29.125zm-284.15 330.61c3.5039-64.5 34.809-100.02 52.758-115.27 1.7656-1.3711 4.1914-1.5352 6.125-0.41016 1.9375 1.1211 3 3.3086 2.6836 5.5273-1.7344 9.707-2.0234 19.617-0.85547 29.406 0.98047 8.0391 4.6211 15.52 10.348 21.242 5.7266 5.7266 13.203 9.3672 21.242 10.348 9.8555 1.2695 19.848 1.0625 29.645-0.61719 2.2891-0.40234 4.582 0.67578 5.7305 2.6953s0.90234 4.543-0.61328 6.3047c-15.25 17.711-50.77 49.016-115.27 52.566-3.1797 0.17969-6.2852-1.0039-8.5391-3.2539-2.25-2.2539-3.4336-5.3594-3.2539-8.5391z"/>
</svg>
